# xmcd
#
# Track frame offsets:
#	150
#	19497
#	34032
#
# Disc length: 678 seconds
#
# Revision: 0
# Processed by: cddbd v1.5.2PL0 Copyright (c) Steve Scherf et al.
# Submitted via: audiograbber 1.83.01
#
DISCID=1e02a403
DTITLE=Kwan - Late [CDM)
DYEAR=2001
DGENRE=Hip-Hop
TTITLE0=Late
TTITLE1=Late (Acoustic)
TTITLE2=Microphoneaye (Live @ Levi)
EXTD=TR.
EXTT0=
EXTT1=
EXTT2=
PLAYORDER=
